<?xml version="1.0" encoding="iso-8859-1"?>
<!-- Uploaded to: SVG Repo, www.svgrepo.com, Generator: SVG Repo Mixer Tools -->
<!DOCTYPE svg PUBLIC "-//W3C//DTD SVG 1.1//EN" "http://www.w3.org/Graphics/SVG/1.1/DTD/svg11.dtd">
<svg fill="#000000" height="800px" width="800px" version="1.1" id="Capa_1" xmlns="http://www.w3.org/2000/svg" xmlns:xlink="http://www.w3.org/1999/xlink" 
	 viewBox="0 0 420.793 420.793" xml:space="preserve">
<g>
	<path d="M415.329,183.476c-4.92-2.506-10.941-0.55-13.449,4.372l-7.058,13.858c-10.737-29.398-35.598-67.595-67.227-103.117
		c-16.439-18.462-34.142-35.579-51.196-49.5c-4.278-3.492-10.579-2.856-14.07,1.424c-3.492,4.278-2.854,10.578,1.424,14.07
		c16.248,13.262,33.159,29.62,48.905,47.306c29.977,33.665,53.375,69.375,63.282,96.414l-14.408-7.339
		c-4.919-2.507-10.941-0.549-13.45,4.372c-2.506,4.921-0.549,10.942,4.372,13.449l35.643,18.155
		c1.419,0.723,2.976,1.089,4.539,1.089c1.04,0,2.084-0.162,3.092-0.49c2.522-0.82,4.615-2.608,5.819-4.972l18.154-35.644
		C422.208,192.003,420.251,185.982,415.329,183.476z"/>
	<path d="M276.297,245.252c-4.684-3.028-9.998-5.201-15.525-6.398c1.655-16.107-5.561-32.558-20.055-41.924
		c-4.951-3.201-10.559-5.454-16.346-6.62c1.324-15.844-5.904-31.914-20.17-41.133c-3.55-2.294-7.373-4.056-11.361-5.253l0.715-1.105
		l26.227-40.519l9.233-14.267c2.092-3.233,3.23-4.991,3.914-6.108l0.018,0.01c6.029-10.006,7.403-21.801,3.871-33.21
		c-3.141-10.142-9.893-18.972-19.01-24.864c-7.208-4.659-15.547-7.122-24.112-7.124h-0.001c-15.174,0-29.146,7.603-37.375,20.338
		c0,0-44.283,68.522-73.582,113.858c-3.734-0.958-7.635-1.458-11.558-1.458c-15.333,0-29.087,7.223-37.735,19.816
		c-19.116,27.83-39.975,65.204-31.505,107.51c7.15,35.714,33.634,67.943,80.964,98.531c29.488,19.057,57.83,28.72,84.239,28.72
		c22.394,0,43.181-6.817,61.784-20.262c13.55-9.793,25.744-22.998,36.244-39.248l24.358-37.831
		C302.821,286.145,296.892,258.562,276.297,245.252z M272.713,295.886l-24.338,37.803c-15.01,23.228-41.014,50.365-81.232,50.365
		c-20.591,0-44.913-7.118-73.384-25.517C-6.444,293.78,13.022,234.352,49.933,180.616c5.41-7.878,13.585-11.138,21.248-11.138
		c4.946,0,9.679,1.358,13.317,3.709l-15.645,24.208c-1.967,3.045-0.085,4.763,0.545,5.169c0.281,0.182,0.888,0.477,1.648,0.477
		c0.943,0,2.125-0.454,3.215-2.141c1.898-2.939,98.856-152.968,98.856-152.968c4.683-7.246,12.547-11.193,20.577-11.192
		c4.549,0,9.153,1.268,13.259,3.921c10.415,6.73,15.32,20.236,8.862,30.954c-0.018,0.042-48.827,75.438-60.832,93.988
		c-0.025,0.039-0.061,0.067-0.084,0.106l-2.506,3.879c-1.194,1.849-0.664,4.316,1.185,5.511c0.669,0.432,1.417,0.638,2.158,0.638
		c1.308,0,2.588-0.643,3.351-1.823l0.648-1.003c4.707-7.03,12.451-10.855,20.355-10.855c4.548,0,9.149,1.268,13.255,3.92
		c11.352,7.336,14.606,22.485,7.27,33.837l-9.601,14.895c-1.178,1.82-0.656,4.249,1.164,5.426c0.658,0.425,1.396,0.628,2.125,0.628
		c1.288,0,2.55-0.633,3.301-1.794l0.544-0.857c3.846-5.95,10.352-8.714,17.151-8.714c5.01,0.001,10.18,1.501,14.562,4.333
		c11.352,7.336,14.564,22.457,7.229,33.809l-9.695,15.09c-1.145,1.771-0.638,4.136,1.135,5.281c0.641,0.414,1.357,0.611,2.068,0.611
		c1.252,0,2.48-0.616,3.211-1.747l0.73-1.153c3.441-5.327,9.695-7.838,16.287-7.838c5.041,0,10.28,1.468,14.613,4.269
		C276.791,269.385,280.048,284.535,272.713,295.886z"/>
</g>
</svg>