<?xml version="1.0" encoding="iso-8859-1"?>
<!-- Uploaded to: SVG Repo, www.svgrepo.com, Generator: SVG Repo Mixer Tools -->
<svg fill="#000000" height="800px" width="800px" version="1.1" id="Layer_1" xmlns="http://www.w3.org/2000/svg" xmlns:xlink="http://www.w3.org/1999/xlink" 
	 viewBox="0 0 512.019 512.019" xml:space="preserve">
<g>
	<g>
		<g>
			<path d="M34.153,59.744v187.733c0,4.71,3.814,8.533,8.533,8.533s8.533-3.823,8.533-8.533V59.744c0-4.71-3.814-8.533-8.533-8.533
				S34.153,55.033,34.153,59.744z"/>
			<path d="M14.569,48.71l28.1-28.1l28.1,28.1c1.664,1.664,3.849,2.5,6.033,2.5c2.185,0,4.369-0.836,6.033-2.5
				c3.337-3.336,3.337-8.73,0-12.066L48.702,2.511c-3.328-3.336-8.73-3.336-12.066,0L2.502,36.644c-3.336,3.337-3.336,8.73,0,12.066
				C5.839,52.047,11.241,52.047,14.569,48.71z"/>
			<path d="M511.405,397.894c-9.301-23.168-11.392-40.09-13.423-56.448c-2.739-22.059-5.564-44.877-25.805-79.94l-55.467-96.077
				c-8.926-15.462-31.138-21.436-46.635-12.493c-5.18,2.995-9.498,7.484-12.467,12.851c-5.743-8.269-14.123-14.174-23.953-16.811
				c-10.999-2.953-22.502-1.425-32.375,4.258c-9.387,5.419-15.94,13.892-19.115,23.441c-13.355-11.025-32.708-13.244-48.546-4.079
				c-9.139,5.282-15.872,13.568-19.157,23.518L140.7,90.831c-21.623-29.466-42.872-23.45-53.615-17.237
				c-9.907,5.717-16.452,14.831-18.423,25.651c-1.809,9.958,0.333,20.89,6.221,31.07l131.243,207.061
				c2.526,3.985,7.799,5.163,11.776,2.645c3.985-2.526,5.171-7.799,2.645-11.776L89.474,121.474
				c-3.678-6.374-5.111-13.184-4.019-19.166c1.075-5.897,4.591-10.718,10.163-13.935c3.84-2.219,15.539-8.969,31.206,12.399
				l91.588,130.739c2.611,3.729,7.714,4.762,11.571,2.295c3.857-2.449,5.094-7.501,2.807-11.46
				c-3.422-5.922-4.326-12.817-2.56-19.43c1.766-6.605,6.008-12.126,11.921-15.539c12.22-7.049,27.93-2.859,34.978,9.37
				l8.516,14.746c0.008,0.017,0.008,0.026,0.017,0.034c2.355,4.087,7.578,5.47,11.657,3.123c4.079-2.355,5.478-7.569,3.123-11.656
				l-0.017-0.026c-7.04-12.22-2.833-27.895,9.387-34.944c5.914-3.413,12.843-4.326,19.422-2.56
				c6.605,1.775,12.126,6.007,15.539,11.93l12.8,22.17c2.364,4.079,7.586,5.47,11.665,3.123c4.079-2.355,5.478-7.569,3.123-11.657
				l-0.017-0.017c-2.142-3.729-2.671-8.439-1.451-12.919c1.229-4.471,4.036-8.252,7.714-10.377
				c7.458-4.318,19.021-1.212,23.322,6.246l55.467,96.077c18.517,32.06,21.009,52.198,23.646,73.506
				c1.963,15.804,3.977,32.094,11.87,53.777L327.75,492.674c-36.497-37.768-129.323-99.994-182.665-99.994l-85.35-0.136
				c-3.891,0-8.533-1.365-8.533-7.859c0-25.523,17.544-43.341,42.667-43.341h76.8c4.719,0,8.533-3.823,8.533-8.533
				c0-4.71-3.814-8.533-8.533-8.533h-76.8c-34.611,0-59.733,25.404-59.733,60.407c0,14.677,10.522,24.926,25.583,24.926l85.35,0.137
				c46.532,0,141.756,61.926,174.643,99.362c1.664,1.894,4.019,2.901,6.409,2.901c1.459,0,2.935-0.376,4.267-1.144l177.365-102.4
				C511.43,406.342,512.984,401.837,511.405,397.894z"/>
			<path d="M42.669,307.21c2.185,0,4.369-0.836,6.033-2.5l34.133-34.133c3.337-3.337,3.337-8.73,0-12.066
				c-3.328-3.336-8.73-3.336-12.066,0l-28.1,28.1l-28.1-28.1c-3.328-3.336-8.73-3.336-12.066,0c-3.336,3.337-3.336,8.73,0,12.066
				l34.133,34.133C38.3,306.374,40.484,307.21,42.669,307.21z"/>
		</g>
	</g>
</g>
</svg>