<?xml version="1.0" encoding="iso-8859-1"?>
<!-- Uploaded to: SVG Repo, www.svgrepo.com, Generator: SVG Repo Mixer Tools -->
<svg fill="#000000" height="800px" width="800px" version="1.1" id="Layer_1" xmlns="http://www.w3.org/2000/svg" xmlns:xlink="http://www.w3.org/1999/xlink" 
	 viewBox="0 0 512 512" xml:space="preserve">
<g transform="translate(1 1)">
	<g>
		<g>
			<path d="M159.16,167.96l-9.387-52.907l40.107-37.547c2.56-1.707,3.413-5.12,2.56-8.533c-0.853-3.413-3.413-5.12-6.827-5.973
				l-55.467-7.68L105.4,6.68c-3.413-5.973-12.8-5.973-15.36,0L65.293,55.32L9.827,63C6.413,63.853,3.853,66.413,3,68.973
				s0,5.973,2.56,8.533l40.107,37.547L36.28,167.96c-0.853,3.413,0.853,6.827,3.413,8.533s5.973,2.56,8.533,0.853l49.493-25.6
				l49.493,25.6c1.707,0.853,2.56,0.853,4.267,0.853c1.707,0,3.413-0.853,4.267-1.707
				C158.307,174.787,160.013,171.373,159.16,167.96z M133.56,113.347l6.827,40.96l-38.4-19.627c-1.707-0.853-2.56-0.853-4.267-0.853
				s-2.56,0.853-2.56,0.853l-38.4,19.627l6.827-40.96c0.853-2.56-0.853-5.973-2.56-7.68l-30.72-28.16l41.813-5.973
				c2.56,0,5.12-1.707,6.827-4.267L97.72,29.72l18.773,37.547c1.707,2.56,4.267,4.267,6.827,4.267l43.52,5.973l-30.72,28.16
				C134.413,107.373,132.707,110.787,133.56,113.347z"/>
			<path d="M468.92,178.2c-7.68,0-15.36,2.56-21.333,7.68v-7.68c0-20.48-16.213-42.667-38.4-42.667c-7.68,0-15.36,2.56-21.333,7.68
				c0-19.627-17.067-41.813-38.4-41.813c-7.68,0-15.36,2.56-21.333,7.68V41.667C328.12,21.187,311.907-1,289.72-1
				c-22.187,0-38.4,22.187-38.4,42.667v180.907C243.64,206.36,233.4,191,223.16,180.76c-13.653-13.653-40.96-14.507-56.32-1.707
				c-4.267,4.267-18.773,19.627,0.853,46.933c17.92,25.6,32.427,81.92,32.427,114.347c0,68.267,44.373,98.987,59.733,107.52v54.613
				c0,5.12,3.413,8.533,8.533,8.533c5.12,0,8.533-3.413,8.533-8.533v-59.733c0-3.413-1.707-5.973-5.12-7.68
				c-2.56-0.853-54.613-25.6-54.613-94.72c0-31.573-13.653-93.867-35.84-124.587c-5.973-7.68-11.093-17.92-3.413-23.893
				c8.533-6.827,25.6-6.827,33.28,0.853c21.333,21.333,40.107,66.56,40.107,87.893c0,5.12,3.413,8.533,8.533,8.533
				s8.533-3.413,8.533-8.533V41.667c0-11.947,9.387-25.6,21.333-25.6c11.947,0,21.333,13.653,21.333,25.6V229.4
				c0,5.12,3.413,8.533,8.533,8.533s8.533-3.413,8.533-8.533v-85.333c0-11.947,9.387-25.6,21.333-25.6
				c11.947,0,21.333,13.653,21.333,25.6v93.867c0,5.12,3.413,8.533,8.533,8.533s8.533-3.413,8.533-8.533V178.2
				c0-11.947,9.387-25.6,21.333-25.6c11.947,0,21.333,13.653,21.333,25.6v40.96c0,0.853,0,0.853,0,1.707V255
				c0,5.12,3.413,8.533,8.533,8.533s8.533-3.413,8.533-8.533v-35.84c0.853-11.093,10.24-23.893,21.333-23.893
				c11.947,0,21.333,13.653,21.333,25.6v119.467c0,64.853,0,64.853-23.893,97.28c-1.707,1.707-1.707,4.267-1.707,5.973v58.88
				c0,5.12,3.413,8.533,8.533,8.533s8.533-3.413,8.533-8.533v-57.173c25.6-34.133,25.6-38.4,25.6-104.96V220.867
				C507.32,200.387,491.107,178.2,468.92,178.2z"/>
			<path d="M379.32,434.2c5.12,0,8.533-3.413,8.533-8.533s-3.413-8.533-8.533-8.533h-25.6c-5.12,0-8.533,3.413-8.533,8.533
				s3.413,8.533,8.533,8.533H379.32z"/>
			<path d="M387.853,451.267h-42.667c-5.12,0-8.533,3.413-8.533,8.533c0,5.12,3.413,8.533,8.533,8.533h42.667
				c5.12,0,8.533-3.413,8.533-8.533C396.387,454.68,392.973,451.267,387.853,451.267z"/>
		</g>
	</g>
</g>
</svg>